<?xml version="1.0" encoding="UTF-8"?>
<svg width="403px" height="362px" viewBox="0 0 403 362" version="1.1" xmlns="http://www.w3.org/2000/svg" xmlns:xlink="http://www.w3.org/1999/xlink">
    <title>Group 26</title>
    <g id="Page-1" stroke="none" stroke-width="1" fill="none" fill-rule="evenodd">
        <g id="Group-26" transform="translate(0.481853, 0.724699)">
            <path d="M84.6470532,103.685457 C79.199665,75.7632743 90.6846911,61.4091077 119.102131,60.622957 C161.728292,59.443731 183.928585,94.2977795 221.471272,99.9003007 C259.013958,105.502822 298.035111,85.8922722 325.381428,91.4061601 C343.612307,95.0820854 356.331057,107.461835 363.537678,128.545409 L84.6470532,103.685457 Z" id="Path-7" fill="#F7F8FF"></path>
            <g id="Group-21" transform="translate(96.465829, 44.129793)">
                <path d="M42.9673573,0 C38.5842383,0.925090795 35.4244076,2.2235934 33.4878651,3.89550781 C31.5513226,5.56742223 30.4709189,7.92972691 30.2466542,10.9824219 C34.3162193,11.1046661 37.4334068,10.2312937 39.5982167,8.36230469 C41.7630265,6.49331564 42.8860734,3.70588074 42.9673573,0 Z" id="Path-8" fill="#4D70FD"></path>
                <path d="M32.9673573,23 C28.5842383,23.9250908 25.4244076,25.2235934 23.4878651,26.8955078 C21.5513226,28.5674222 20.4709189,30.9297269 20.2466542,33.9824219 C24.3162193,34.1046661 27.4334068,33.2312937 29.5982167,31.3623047 C31.7630265,29.4933156 32.8860734,26.7058807 32.9673573,23 Z" id="Path-8" fill="#4D70FD" transform="translate(26.607006, 28.496839) rotate(16.000000) translate(-26.607006, -28.496839) "></path>
                <path d="M26.9673573,45 C22.5842383,45.9250908 19.4244076,47.2235934 17.4878651,48.8955078 C15.5513226,50.5674222 14.4709189,52.9297269 14.2466542,55.9824219 C18.3162193,56.1046661 21.4334068,55.2312937 23.5982167,53.3623047 C25.7630265,51.4933156 26.8860734,48.7058807 26.9673573,45 Z" id="Path-8" fill="#4D70FD" transform="translate(20.607006, 50.496839) rotate(12.000000) translate(-20.607006, -50.496839) "></path>
                <path d="M24.9673573,10 C20.5842383,10.9250908 17.4244076,12.2235934 15.4878651,13.8955078 C13.5513226,15.5674222 12.4709189,17.9297269 12.2466542,20.9824219 C16.3162193,21.1046661 19.4334068,20.2312937 21.5982167,18.3623047 C23.7630265,16.4933156 24.8860734,13.7058807 24.9673573,10 Z" id="Path-8" fill="#4D70FD" transform="translate(18.607006, 15.496839) rotate(-74.000000) translate(-18.607006, -15.496839) "></path>
                <path d="M15.9673573,34 C11.5842383,34.9250908 8.42440762,36.2235934 6.4878651,37.8955078 C4.55132258,39.5674222 3.47091894,41.9297269 3.24665416,44.9824219 C7.31621933,45.1046661 10.4334068,44.2312937 12.5982167,42.3623047 C14.7630265,40.4933156 15.8860734,37.7058807 15.9673573,34 Z" id="Path-8" fill="#4D70FD" transform="translate(9.607006, 39.496839) rotate(-89.000000) translate(-9.607006, -39.496839) "></path>
                <path d="M11.9673573,53 C7.58423835,53.9250908 4.42440762,55.2235934 2.4878651,56.8955078 C0.551322584,58.5674222 -0.529081061,60.9297269 -0.753345836,63.9824219 C3.31621933,64.1046661 6.43340683,63.2312937 8.59821666,61.3623047 C10.7630265,59.4933156 11.8860734,56.7058807 11.9673573,53 Z" id="Path-8" fill="#4D70FD" transform="translate(5.607006, 58.496839) rotate(-89.000000) translate(-5.607006, -58.496839) "></path>
                <path d="M30.5523182,10.6455078 C25.5989167,16.2439117 21.4804271,23.7092503 18.1968495,33.0415236 C14.9132719,42.3737968 12.6984281,52.9084582 11.5523182,64.6455078" id="Line-12" stroke="#4749FF" stroke-linecap="square"></path>
            </g>
            <g id="Group-19" transform="translate(23.445962, 103.989481)">
                <path d="M19.2840993,4.24871009 L19.2840993,30.715507 C16.5377706,31.8529554 14.2659607,31.1690361 12.4686696,28.6637492 C10.6713785,26.1584622 9.64436588,22.2440742 9.38763185,16.9205851 C5.42983104,15.3020517 2.68405717,13.2616871 1.15031021,10.7994913 C-0.383436738,8.33729559 -0.383436738,5.55637111 1.15031021,2.4567179 C2.80031529,0.552262238 4.75571893,-0.244938282 7.01652115,0.065116339 C9.27732337,0.37517096 11.6699015,1.76970221 14.1942555,4.24871009 L19.2840993,4.24871009 Z" id="Path-5" fill="#474BF9"></path>
                <path d="M9.57218521,8.78581946 C11.4080135,11.0292326 13.0746801,12.6750659 14.5721852,13.7233195 C16.0696903,14.771573 17.7363569,15.459073 19.5721852,15.7858195" id="Line-11" stroke="#3029F3" stroke-linecap="square"></path>
            </g>
            <g id="Group-14" transform="translate(27.563686, 60.253460)">
                <path d="M2.9427418,0.442739239 C5.93399676,-0.44903784 8.84740822,0.00636580615 11.6829762,1.80895018 C14.5185441,3.61153455 16.5384009,6.33353975 17.7425465,9.9749658 C24.525429,10.6777167 29.5674212,13.1542792 32.868523,17.4046533 C36.1696249,21.6550274 37.0872682,27.2484519 35.6214527,34.1849267 C39.8011505,34.4526048 42.9860464,35.3962897 45.1761402,37.0159814 C47.3662341,38.6356731 48.8177315,40.7014283 49.5306324,43.2132471 L15.2298512,44.5804346 C9.53695147,44.675035 5.90576657,42.8319361 4.33629649,39.0511377 C2.7668264,35.2703393 3.34430036,29.7571557 6.06871836,22.5115869 C2.5862995,16.1371098 0.604203145,11.2492517 0.122429299,7.84801268 C-0.359344546,4.44677361 0.58075962,1.97834913 2.9427418,0.442739239 Z" id="Path-4" fill="#4C71FF"></path>
                <line x1="10.4544605" y1="14.5218408" x2="30.4544605" y2="44.5218408" id="Line-8" stroke="#4351FB" stroke-linecap="square"></line>
            </g>
            <g id="Group-13" transform="translate(242.660725, 98.040160)">
                <path d="M-3.19744231e-14,4.44803124 C2.52506984,3.21936958 4.5009813,2.61585396 5.92773437,2.63748436 C8.52337554,2.67683579 11.2325956,4.85715224 14.5576172,4.44803124 C18.3241092,3.98459035 20.33227,1.3704609 24.0166016,0.456820301 C26.4728226,-0.152273434 28.9464554,-0.152273434 31.4375,0.456820301 C34.2065659,3.39447556 34.5398993,6.77761358 32.4375,10.6062344 C30.3351007,14.4348551 26.7029393,17.0594881 21.5410156,18.4801332 C19.4824891,27.4027048 17.1546896,32.9964963 14.5576172,35.2615078 C11.9605448,37.5265193 8.62851355,37.5265193 4.56152344,35.2615078 L-3.19744231e-14,4.44803124 Z" id="Path" fill="#4873FF"></path>
                <path d="M2.35742188,21.7351406 C5.1270848,19.1199867 7.79375146,17.0112627 10.3574219,15.4089687 C12.9210923,13.8066747 15.587759,12.5820654 18.3574219,11.7351406" id="Line-7" stroke="#4351F0" stroke-linecap="square"></path>
            </g>
            <g id="Group-17" transform="translate(0.000000, 168.044123)">
                <path d="M42.0376782,63.1579351 C33.0196933,59.1826691 26.7947584,56.1579295 23.3628735,54.0837163 C14.8147595,48.9172813 9.27899419,43.4325293 5.70760003,39.5973882 C-0.0145516588,33.4526565 -1.43414801,27.2352086 1.44881097,20.9450445 C5.29402543,16.660869 10.8897286,16.660869 18.2359203,20.9450445 C25.5821121,25.22922 33.5160314,32.651746 42.0376782,43.2126226 L42.0376782,63.1579351 Z" id="Path-2" fill="#4873FF"></path>
                <path d="M41.0181469,52.7311773 C35.1639931,48.8417202 30.1236285,45.1750535 25.8970532,41.7311773 C21.6704778,38.287301 17.7108424,34.6206344 14.0181469,30.7311773" id="Line-9" stroke="#4258F3" stroke-linecap="square"></path>
                <g id="Group-16" transform="translate(19.268076, 0.000000)">
                    <path d="M23.0791729,43.4362554 C12.5053862,34.0138827 5.55128459,25.690315 2.21686826,18.4655523 C-1.11754808,11.2407895 -0.690464742,5.42210465 3.49811826,1.0094976 C7.2429454,-0.98665126 10.5773617,-0.0224585518 13.5013673,3.90207572 C16.4253728,7.82660999 19.6179747,15.622834 23.0791729,27.2907476 L23.0791729,43.4362554 Z" id="Path-3" fill="#484BFF"></path>
                    <path d="M8.75007138,10.7311773 C11.0212123,15.9535677 13.3545457,20.7891797 15.7500714,25.2380132 C18.1455971,29.6868467 20.4789304,33.5179014 22.7500714,36.7311773" id="Line-10" stroke="#3C3CF9" stroke-linecap="square"></path>
                </g>
            </g>
            <g id="Group-17" transform="translate(381.173624, 148.302103) scale(-1, 1) translate(-381.173624, -148.302103) translate(360.000000, 120.402148)">
                <path d="M42.0376782,55.7999105 C33.0196933,51.8246445 26.7947584,48.7999049 23.3628735,46.7256917 C14.8147595,41.5592567 9.27899419,36.0745047 5.70760003,32.2393636 C-0.0145516588,26.0946319 -1.43414801,19.877184 1.44881097,13.5870199 C5.29402543,9.30284435 10.8897286,9.30284435 18.2359203,13.5870199 C25.5821121,17.8711954 33.5160314,25.2937214 42.0376782,35.854598 L42.0376782,55.7999105 Z" id="Path-2" fill="#4873FF"></path>
                <path d="M41.0181469,45.3731527 C35.1639931,41.4836956 30.1236285,37.8170289 25.8970532,34.3731527 C21.6704778,30.9292764 17.7108424,27.2626098 14.0181469,23.3731527" id="Line-9" stroke="#4258F3" stroke-linecap="square"></path>
                <g id="Group-16" transform="translate(21.794662, 0.000000)">
                    <path d="M20.5525863,36.0782308 C12.0376651,30.1662748 6.11299634,23.5979154 2.77858,16.3731527 C-0.55583633,9.14838994 -0.889169663,4.31505661 1.77858,1.87315267 C6.48451096,-1.0513816 10.2994792,-0.551381597 13.2234847,3.37315267 C16.1474902,7.29768695 18.5905241,12.8175437 20.5525863,19.932723 L20.5525863,36.0782308 Z" id="Path-3" fill="#484BFF"></path>
                    <path d="M7.22348472,9.37315267 C9.33240131,13.3903761 11.499068,17.1100776 13.7234847,20.5322572 C15.9479015,23.9544369 18.1145681,26.901402 20.2234847,29.3731527" id="Line-10" stroke="#3C3CF9" stroke-linecap="square"></path>
                </g>
            </g>
            <rect id="Rectangle" fill="#191752" x="361.518147" y="142.275301" width="3" height="15"></rect>
            <rect id="Rectangle" fill="#191752" x="267.518147" y="142.275301" width="3" height="15"></rect>
            <g id="Group-5" transform="translate(11.518147, 82.275301)">
                <rect id="Rectangle" stroke="#5574E6" stroke-width="2" x="131" y="3" width="171" height="119"></rect>
                <ellipse id="Oval" fill="#DBE4FF" cx="189" cy="211" rx="189" ry="11"></ellipse>
                <rect id="Rectangle" fill="#2C3063" x="30" y="20" width="207" height="141" rx="5"></rect>
                <rect id="Rectangle" fill="#FFFFFF" x="36" y="26" width="195" height="129" rx="5"></rect>
                <path d="M41,26 L226,26 C228.761424,26 231,28.2385763 231,31 L231,36 L231,36 L36,36 L36,31 C36,28.2385763 38.2385763,26 41,26 Z" id="Rectangle" fill="#E4EAFF"></path>
                <rect id="Rectangle" fill="#17184C" x="111" y="161" width="44" height="32"></rect>
                <path d="M93,193 L173,193 C176.313708,193 179,195.686292 179,199 L179,206 L179,206 L87,206 L87,199 C87,195.686292 89.6862915,193 93,193 Z" id="Rectangle" fill="#2E3061"></path>
                <rect id="Rectangle" fill="#17184C" x="258" y="37" width="92" height="169" rx="6"></rect>
                <rect id="Rectangle" fill="#FFFFFF" x="262" y="41" width="84" height="161" rx="6"></rect>
                <circle id="Oval" fill="#4949FF" cx="215" cy="3" r="3"></circle>
                <circle id="Oval" fill="#4949FF" cx="302" cy="3" r="3"></circle>
                <circle id="Oval" fill="#4949FF" cx="250" cy="122" r="3"></circle>
                <circle id="Oval" fill="#4949FF" cx="131" cy="3" r="3"></circle>
                <rect id="Rectangle" fill="#19194A" x="168" y="161" width="13" height="3"></rect>
                <rect id="Rectangle" fill="#19194A" x="187" y="161" width="13" height="3"></rect>
                <rect id="Rectangle" fill="#19194A" x="206" y="161" width="13" height="3"></rect>
                <g id="Group-2" transform="translate(272.000000, 63.000000)" fill="#F0F4FF">
                    <rect id="Rectangle" x="24" y="0" width="16" height="16" rx="4"></rect>
                    <rect id="Rectangle" x="48" y="46" width="16" height="16" rx="4"></rect>
                    <rect id="Rectangle" x="0" y="46" width="16" height="16" rx="4"></rect>
                    <rect id="Rectangle" x="24" y="46" width="16" height="16" rx="4"></rect>
                    <rect id="Rectangle" x="48" y="69" width="16" height="16" rx="4"></rect>
                    <rect id="Rectangle" x="0" y="69" width="16" height="16" rx="4"></rect>
                    <rect id="Rectangle" x="24" y="69" width="16" height="16" rx="4"></rect>
                    <rect id="Rectangle" x="48" y="22" width="16" height="16" rx="4"></rect>
                    <rect id="Rectangle" x="0" y="22" width="16" height="16" rx="4"></rect>
                    <rect id="Rectangle" x="24" y="23" width="16" height="16" rx="4"></rect>
                    <rect id="Rectangle" x="48" y="0" width="16" height="16" rx="4"></rect>
                    <rect id="Rectangle" x="0" y="0" width="16" height="16" rx="4"></rect>
                </g>
                <g id="Group" transform="translate(277.000000, 41.000000)">
                    <path d="M0,0 L50,0 L45.8799353,5.56864713 C44.7484913,7.09789785 42.9588872,8 41.0565798,8 L7.97813698,8 C6.71602311,8 5.52794023,7.40433067 4.77288605,6.39298275 L0,0 L0,0 Z" id="Rectangle" fill="#2E3060"></path>
                    <rect id="Rectangle" fill="#6F6E9A" x="8" y="3" width="29" height="2"></rect>
                    <circle id="Oval" fill="#6F6E9A" cx="41" cy="4" r="1"></circle>
                </g>
            </g>
            <g id="Group-27" transform="translate(290.518147, 215.275301)"></g>
            <g id="Group-7" transform="translate(55.518147, 131.275301)">
                <g id="Group-6">
                    <circle id="Oval" fill="#EDF0FF" cx="18" cy="18" r="18"></circle>
                    <path d="M21.3671875,0 C24.9897367,0.547679452 28.28238,2.30288778 31.2451172,5.265625 C34.2078544,8.22836222 35.7928153,11.3403414 36,14.6015625 L18,18 L21.3671875,0 Z" id="Rectangle" fill="#DEE4FA"></path>
                </g>
                <rect id="Rectangle" fill="#EDF0FF" x="42" y="5" width="30" height="2"></rect>
                <rect id="Rectangle" fill="#EDF0FF" x="42" y="0" width="36" height="2"></rect>
                <rect id="Rectangle" fill="#EDF0FF" x="42" y="10" width="26" height="2"></rect>
                <rect id="Rectangle" fill="#EDF0FF" x="42" y="15" width="36" height="2"></rect>
                <rect id="Rectangle" fill="#EDF0FF" x="42" y="20" width="32" height="2"></rect>
                <rect id="Rectangle" fill="#EDF0FF" x="42" y="24" width="36" height="2"></rect>
                <rect id="Rectangle" fill="#EDF0FF" x="42" y="29" width="30" height="2"></rect>
                <rect id="Rectangle" fill="#EDF0FF" x="42" y="34" width="36" height="2"></rect>
            </g>
            <g id="Group-8" transform="translate(55.518147, 189.275301)">
                <rect id="Rectangle" fill="#F1F4FD" x="0" y="0" width="85" height="36" rx="4"></rect>
                <rect id="Rectangle" fill="#DEE2FF" x="5" y="6" width="65" height="3"></rect>
                <rect id="Rectangle" fill="#DEE2FF" x="5" y="13" width="77" height="3"></rect>
                <rect id="Rectangle" fill="#DEE2FF" x="5" y="21" width="58" height="3"></rect>
                <rect id="Rectangle" fill="#DEE2FF" x="5" y="28" width="71" height="3"></rect>
            </g>
            <g id="Group-10" transform="translate(150.518147, 189.275301)">
                <rect id="Rectangle" fill="#F1F4FD" x="0" y="0" width="85" height="36" rx="4"></rect>
                <g id="Group-9" transform="translate(3.000000, 6.000000)" stroke="#DEE2FF" stroke-linecap="square" stroke-width="2">
                    <line x1="0.5" y1="24.5" x2="14.5" y2="7.5" id="Line"></line>
                    <line x1="14.5" y1="7.5" x2="25.5" y2="23.5" id="Line-2"></line>
                    <line x1="25.5" y1="23.5" x2="46.5" y2="0.5" id="Line-3"></line>
                    <line x1="46.5" y1="0.5" x2="62.5" y2="17.5" id="Line-4"></line>
                    <line x1="62.5" y1="17.5" x2="78.5" y2="0.5" id="Line-5"></line>
                </g>
            </g>
            <g id="Group-18" transform="translate(209.518147, 111.275301)">
                <circle id="Oval" fill="#F5AF21" cx="12" cy="2" r="2"></circle>
                <circle id="Oval" fill="#EA4370" cx="22" cy="2" r="2"></circle>
                <circle id="Oval" fill="#5070F5" cx="2" cy="2" r="2"></circle>
            </g>
            <g id="Group-20" transform="translate(63.658772, 0.000000)" fill="#F6F7FF">
                <path d="M111,59.8495195 L212.258789,59.8495195 C213.123862,57.7162298 213.123862,55.9336777 212.258789,54.5018632 C211.393716,53.0700488 209.784341,52.1888639 207.430664,51.8583085 C207.428931,48.0543441 205.689348,45.3691228 202.211914,43.8026445 C198.73448,42.2361662 194.513126,42.2361662 189.547852,43.8026445 C184.878634,36.4442768 179.840222,32.5266336 174.432617,32.0497148 C169.025012,31.572796 163.141874,34.5272231 156.783203,40.912996 C152.624844,39.9196787 148.850105,39.9196787 145.458984,40.912996 C142.067864,41.9063134 139.334791,43.8125634 137.259766,46.631746 C133.844527,45.5025496 130.590621,45.2668874 127.498047,45.9247597 C124.405473,46.582632 122.058793,48.5604816 120.458008,51.8583085 C117.552062,51.1242621 115.368142,51.5588324 113.90625,53.1620195 C112.444358,54.7652065 111.475608,56.9943732 111,59.8495195 Z" id="Path-6"></path>
                <path d="M228,38 L297.082592,38 C297.672778,36.5445887 297.672778,35.328464 297.082592,34.3516258 C296.492406,33.3747876 295.39443,32.7736098 293.788662,32.5480924 C293.787479,29.9528833 292.60067,28.1209233 290.228232,27.0522124 C287.855795,25.9835014 284.975827,25.9835014 281.588328,27.0522124 C278.40281,22.0320545 274.965414,19.3592895 271.276141,19.0339173 C267.586867,18.7085452 263.573167,20.7241676 259.23504,25.0807844 C256.39805,24.4031056 253.822779,24.4031056 251.509228,25.0807844 C249.195677,25.7584632 247.331071,27.0589794 245.91541,28.9823329 C243.585404,28.2119522 241.365466,28.0511745 239.255594,28.5 C237.145723,28.9488255 235.544729,30.2981896 234.452612,32.5480924 C232.470065,32.047298 230.980113,32.3437784 229.982754,33.4375335 C228.985396,34.5312886 228.324478,36.0521108 228,38 Z" id="Path-6"></path>
                <path d="M-1.49213975e-13,19 L69.082592,19 C69.6727775,17.5445887 69.6727775,16.328464 69.082592,15.3516258 C68.4924065,14.3747876 67.3944297,13.7736098 65.7886617,13.5480924 C65.7874794,10.9528833 64.6006696,9.12092334 62.2282323,8.05221237 C59.855795,6.98350139 56.9758268,6.98350139 53.5883278,8.05221237 C50.40281,3.03205447 46.9654143,0.359289452 43.2761408,0.033917323 C39.5868673,-0.291454806 35.5731671,1.72416757 31.2350402,6.08078445 C28.3980497,5.40310565 25.822779,5.40310565 23.509228,6.08078445 C21.195677,6.75846325 19.3310709,8.0589794 17.9154095,9.98233291 C15.585404,9.21195217 13.3654655,9.05117453 11.2555942,9.5 C9.14572293,9.94882547 7.54472891,11.2981896 6.45261217,13.5480924 C4.47006527,13.047298 2.98011259,13.3437784 1.98275414,14.4375335 C0.985395681,15.5312886 0.324477635,17.0521108 -1.49213975e-13,19 Z" id="Path-6"></path>
            </g>
            <g id="Group-22" transform="translate(213.388231, 156.450671)">
                <ellipse id="Oval" fill="#DFE7FD" cx="64.6299157" cy="202.82463" rx="46.5" ry="2"></ellipse>
                <g id="Group-23" transform="translate(0.000000, 43.429346)" fill="#27449F">
                    <rect id="Rectangle" transform="translate(6.129916, 13.895284) rotate(-21.000000) translate(-6.129916, -13.895284) " x="5.12991569" y="-0.604715866" width="2" height="29"></rect>
                    <rect id="Rectangle" transform="translate(25.129916, 26.895284) rotate(89.000000) translate(-25.129916, -26.895284) " x="24.1299157" y="12.3952841" width="2" height="29"></rect>
                </g>
                <rect id="Rectangle" fill="#FDE4CB" x="44.1299157" y="192.82463" width="5" height="5"></rect>
                <rect id="Rectangle" fill="#FDE4CB" transform="translate(91.629916, 191.324630) rotate(-23.000000) translate(-91.629916, -191.324630) " x="89.1299157" y="188.82463" width="5" height="5"></rect>
                <path d="M19.2402673,71.4554894 L19.2402673,73.8890831 L14.0635094,73.8890831 C12.0430644,73.9741271 10.6271781,73.673265 9.81585081,72.9864968 C9.00452348,72.2997287 8.85986282,71.2796273 9.38186882,69.9261925 C9.75116697,70.8600618 10.4219552,71.4523846 11.3942334,71.7031608 C11.8551783,71.8220507 12.3161233,69.8660209 12.7770683,69.8350714 C13.1179571,69.812183 13.295957,70.3523223 13.311068,71.4554894 L19.2402673,71.4554894 Z" id="Path-18" fill="#FDE4CB"></path>
                <path d="M41.3164391,15.4779503 C42.7246973,15.7655283 43.7087651,16.9837834 44.2686426,19.1327158 C45.1084588,22.3561143 43.5756532,24.6230881 43.9482751,25.5795128 C44.1966896,26.2171293 45.1407,26.2171293 46.7803063,25.5795128 L47.7803063,29.32463 C48.1086434,30.0593492 49.1441959,30.6073155 50.8869637,30.9685289 C52.6297316,31.3297423 54.0391661,31.024289 55.1152673,30.0521691 L55.1152673,32.2787316 L63.6836266,30.0521691 L62.9590173,25.5795128 C61.6067936,24.9070674 60.8502633,23.5518079 60.6894262,21.5137343 C60.4481706,18.4566238 62.4986546,17.4256041 61.8874604,15.6484565 C61.4799976,14.4636914 60.4058681,13.945593 58.6650719,14.0941613 C57.6754109,13.3318585 56.9652638,13.331371 56.5346307,14.0926989 C56.1039976,14.8540268 56.0651212,15.8453996 56.4180016,17.0668175 C55.3188726,15.9411228 54.5843196,14.8967527 54.2143428,13.9337072 C53.844366,12.9706617 53.7729294,11.9170501 54.0000329,10.7728722 C50.9326923,12.4063098 48.5009573,13.5846865 46.7048277,14.3080025 C44.9086982,15.0313184 43.1125687,15.421301 41.3164391,15.4779503 Z" id="Path-13" fill="#FFD0A8"></path>
                <path d="M44.0859704,98.7904503 L41.9180016,134.883224 L44.0859704,193.51506 L49.1396813,193.51506 C51.275653,182.33303 52.6757181,172.997418 53.3398766,165.508224 C54.0040352,158.019029 54.0040352,150.711249 53.3398766,143.584884 L56.6440759,133.505294 C61.3722898,121.972281 64.5680905,114.566682 66.2314782,111.288497 C68.7265597,106.37122 70.8534232,105.191707 71.3701501,103.79338 C72.5289527,100.657516 72.5289527,97.2779589 71.3701501,93.6547081 L44.0859704,98.7904503 Z" id="Path-9" fill="#59495F"></path>
                <path d="M57.0786268,133.778732 C56.8993182,136.078663 57.1699952,138.5077 57.8906579,141.065841 C58.6113206,143.623982 59.6122971,145.708943 60.8935876,147.320724 L88.1308923,190.760177 L94.0185876,188.505294 C90.5819467,178.370187 86.9436004,169.356515 83.1035485,161.464278 C79.2634966,153.572042 74.8819862,146.102967 69.9590173,139.057052 L69.9590173,106.832443" id="Path-10" fill="#5A4A60"></path>
                <path d="M70.5605798,104.907638 C68.2373033,107.245564 65.90397,110.561971 63.5605798,114.856857 C61.2171896,119.151742 58.8838562,124.388244 56.5605798,130.566362 C56.6719949,134.630466 57.687007,138.974486 59.6056162,143.598423 C61.5242253,148.22236 63.4609237,150.992098 65.4157113,151.907638 C60.8419972,144.861284 59.6985687,137.02795 61.9854258,128.407638 C62.9322507,124.838579 62.2713342,124.298803 65.1198144,118.105173 C67.0188012,113.976087 68.8323897,109.576909 70.5605798,104.907638 Z" id="Path-11" fill="#4C4050"></path>
                <path d="M55.0605798,31.2513878 L63.0469079,29.9779503 C67.4298515,32.5781665 70.250164,38.5342211 71.5078454,47.8461144 C72.2243415,53.1510632 71.2822646,58.2631882 70.6816147,63.1824895 C70.3791586,65.6595939 69.8830845,69.2652423 69.1933923,73.9994347 L74.017611,94.0609581 C70.6645054,94.1505403 66.7804596,94.7641777 62.3654737,95.9018702 C55.7429947,97.6084089 52.3734598,98.5852664 50.2568688,98.8324425 C47.1599211,99.194105 44.1003508,98.8858368 41.0781579,97.9076378 C40.9751755,84.296932 42.0503708,72.1204997 44.3037438,61.378341 C46.5571168,50.6361822 50.1427288,40.5938645 55.0605798,31.2513878 Z" id="Path-12" fill="#FBB106"></path>
                <path d="M33.1660485,7.32853627 C35.2803243,12.0676266 38.0316264,14.8000484 41.4199548,15.5258019 C44.8082831,16.2515554 48.5205227,14.9035736 52.5566735,11.4818566 L55.7451501,18.4281456 C56.0247531,16.8451532 56.4971859,15.7315515 57.1624484,15.0873407 C57.827711,14.4431298 58.4929735,14.4655857 59.158236,15.1547081 C60.1625558,15.5857899 60.7580712,16.2891626 60.9447824,17.2648264 C61.1314935,18.2404901 60.9848712,19.5494871 60.5049157,21.1918175 L60.4483928,23.5276407 L62.5596032,26.2787316 L65.9980798,14.1547081 C65.9200646,10.0438656 64.9129703,6.93398039 62.9767968,4.82505237 C60.0725367,1.66166035 56.7362065,0.792704466 54.9678063,0.218184711 C50.6793161,-1.1750646 45.2611825,4.49751587 41.2294712,6.10785601 C38.5416636,7.18141609 35.8538561,7.58830952 33.1660485,7.32853627 Z" id="Path-14" fill="#2D1D59"></path>
                <path d="M62.0635094,46.7816613 C61.5204463,53.6581924 60.398019,59.3973096 58.6962275,63.9990127 C56.1435404,70.9015675 54.611361,76.3988488 50.7178063,77.6722863 C47.4450199,77.6722863 36.5071943,76.4636274 17.9043298,74.0463097 L17.9043298,69.3705285 L43.0381188,69.3705285 L62.0635094,46.7816613 Z" id="Path-15" fill="#FBB106"></path>
                <path d="M41.9472985,76.0453331 L41.9472985,77.8890831 L51.0322594,77.8890831 C54.0318331,75.5349262 56.6223279,71.1436502 58.8037438,64.715255 C60.9851597,58.2868599 62.1274123,51.6781359 62.2305016,44.8890831 C61.8233554,51.3713954 60.7767242,56.8828606 59.090608,61.4234787 C57.4044918,65.9640969 54.7183756,70.8380483 51.0322594,76.0453331 L41.9472985,76.0453331 Z" id="Path-16" fill="#F09C16"></path>
                <polygon id="Path-17" fill="#F8B311" points="45.6494469 60.4784128 44.0029626 67.63713 26.1181969 67.63713 26.1181969 64.0577714"></polygon>
                <path d="M44.330111,196.5717 L49.8642907,196.5717 L49.8642907,202.391265 C49.8642907,202.94355 49.4165754,203.391265 48.8642907,203.391265 C48.8237415,203.391265 48.7832297,203.388799 48.74298,203.38388 L45.6494469,203.005809 L45.6494469,203.005809 L45.114779,201.520919 L42.6871293,202.633769 C38.7958307,202.645084 36.6885433,202.607468 36.3652673,202.520919 C35.0649461,202.172793 35.0649461,201.347923 36.3652673,200.04631 C38.181747,199.799034 39.7649176,199.4657 41.114779,199.04631 C42.4646404,198.626919 43.5364177,197.802049 44.330111,196.5717 Z" id="Path-20" fill="#4D5050" transform="translate(42.627159, 200.046310) rotate(-5.000000) translate(-42.627159, -200.046310) "></path>
                <path d="M91.330111,194.5717 L96.8642907,194.5717 L96.8642907,200.391265 C96.8642907,200.94355 96.4165754,201.391265 95.8642907,201.391265 C95.8237415,201.391265 95.7832297,201.388799 95.74298,201.38388 L92.6494469,201.005809 L92.6494469,201.005809 L92.114779,199.520919 L89.6871293,200.633769 C85.7958307,200.645084 83.6885433,200.607468 83.3652673,200.520919 C82.0649461,200.172793 82.0649461,199.347923 83.3652673,198.04631 C85.181747,197.799034 86.7649176,197.4657 88.114779,197.04631 C89.4646404,196.626919 90.5364177,195.802049 91.330111,194.5717 Z" id="Path-20" fill="#4D5050" transform="translate(89.627159, 198.046310) rotate(-26.000000) translate(-89.627159, -198.046310) "></path>
                <path d="M25.9805016,64.0717224 L25.9805016,66.5775376 L23.1435876,66.5775376 C20.2299142,67.5587683 18.5743152,67.9891746 18.1767907,67.8687564 C17.5805039,67.6881292 18.573954,66.6635654 19.5755181,65.7996178 C20.2432274,65.2236527 21.2442701,64.6476875 22.5786462,64.0717224 L25.9805016,64.0717224 Z" id="Path-19" fill="#FDE4CB"></path>
                <path d="M47.6299157,53.32463 L42.9886524,68.9467003 C43.472759,66.0485498 44.1584341,63.1062838 45.0456777,60.1199024 C45.9329214,57.133521 46.794334,54.8684302 47.6299157,53.32463 Z" id="Path-21" fill="#F09C16" transform="translate(45.309284, 61.135665) rotate(-4.000000) translate(-45.309284, -61.135665) "></path>
            </g>
            <g id="Group-25" transform="translate(347.518147, 63.275301)">
                <circle id="Oval" stroke="#FDD476" stroke-width="2" cx="8.5" cy="24.5" r="4.5"></circle>
                <circle id="Oval" stroke="#6282FE" stroke-width="2" cx="26.5" cy="36.5" r="4.5"></circle>
                <g id="Group-24">
                    <rect id="Rectangle" fill="#94B0FE" transform="translate(6.000000, 6.000000) rotate(90.000000) translate(-6.000000, -6.000000) " x="4.54747351e-13" y="5" width="12" height="2"></rect>
                    <rect id="Rectangle" fill="#94B0FE" transform="translate(6.000000, 6.000000) rotate(180.000000) translate(-6.000000, -6.000000) " x="0" y="5" width="12" height="2"></rect>
                    <rect id="Rectangle" fill="#5C7AC8" x="6" y="0" width="1" height="5"></rect>
                    <rect id="Rectangle" fill="#5C7AC8" transform="translate(9.500000, 5.500000) rotate(90.000000) translate(-9.500000, -5.500000) " x="9" y="3" width="1" height="5"></rect>
                    <rect id="Rectangle" fill="#5C7AC8" transform="translate(2.500000, 5.500000) rotate(90.000000) translate(-2.500000, -5.500000) " x="2" y="3" width="1" height="5"></rect>
                    <rect id="Rectangle" fill="#5C7AC8" x="6" y="7" width="1" height="5"></rect>
                </g>
                <g id="Group-24" transform="translate(20.000000, 12.000000)">
                    <rect id="Rectangle" fill="#FBD58E" transform="translate(6.000000, 6.000000) rotate(90.000000) translate(-6.000000, -6.000000) " x="4.54747351e-13" y="5" width="12" height="2"></rect>
                    <rect id="Rectangle" fill="#FBD58E" transform="translate(6.000000, 6.000000) rotate(180.000000) translate(-6.000000, -6.000000) " x="0" y="5" width="12" height="2"></rect>
                    <rect id="Rectangle" fill="#D7B463" x="6" y="0" width="1" height="5"></rect>
                    <rect id="Rectangle" fill="#D7B463" transform="translate(9.500000, 5.500000) rotate(90.000000) translate(-9.500000, -5.500000) " x="9" y="3" width="1" height="5"></rect>
                    <rect id="Rectangle" fill="#D7B463" transform="translate(2.500000, 5.500000) rotate(90.000000) translate(-2.500000, -5.500000) " x="2" y="3" width="1" height="5"></rect>
                    <rect id="Rectangle" fill="#D7B463" x="6" y="7" width="1" height="5"></rect>
                </g>
            </g>
            <g id="Group-25" transform="translate(73.518147, 47.775301) scale(-1, 1) translate(-73.518147, -47.775301) translate(57.518147, 27.275301)">
                <circle id="Oval" stroke="#FDD476" stroke-width="2" cx="8.5" cy="24.5" r="4.5"></circle>
                <circle id="Oval" stroke="#6282FE" stroke-width="2" cx="26.5" cy="36.5" r="4.5"></circle>
                <g id="Group-24">
                    <rect id="Rectangle" fill="#94B0FE" transform="translate(6.000000, 6.000000) rotate(90.000000) translate(-6.000000, -6.000000) " x="4.54747351e-13" y="5" width="12" height="2"></rect>
                    <rect id="Rectangle" fill="#94B0FE" transform="translate(6.000000, 6.000000) rotate(180.000000) translate(-6.000000, -6.000000) " x="0" y="5" width="12" height="2"></rect>
                    <rect id="Rectangle" fill="#5C7AC8" x="6" y="0" width="1" height="5"></rect>
                    <rect id="Rectangle" fill="#5C7AC8" transform="translate(9.500000, 5.500000) rotate(90.000000) translate(-9.500000, -5.500000) " x="9" y="3" width="1" height="5"></rect>
                    <rect id="Rectangle" fill="#5C7AC8" transform="translate(2.500000, 5.500000) rotate(90.000000) translate(-2.500000, -5.500000) " x="2" y="3" width="1" height="5"></rect>
                    <rect id="Rectangle" fill="#5C7AC8" x="6" y="7" width="1" height="5"></rect>
                </g>
                <g id="Group-24" transform="translate(20.000000, 12.000000)">
                    <rect id="Rectangle" fill="#FBD58E" transform="translate(6.000000, 6.000000) rotate(90.000000) translate(-6.000000, -6.000000) " x="4.54747351e-13" y="5" width="12" height="2"></rect>
                    <rect id="Rectangle" fill="#FBD58E" transform="translate(6.000000, 6.000000) rotate(180.000000) translate(-6.000000, -6.000000) " x="0" y="5" width="12" height="2"></rect>
                    <rect id="Rectangle" fill="#D7B463" x="6" y="0" width="1" height="5"></rect>
                    <rect id="Rectangle" fill="#D7B463" transform="translate(9.500000, 5.500000) rotate(90.000000) translate(-9.500000, -5.500000) " x="9" y="3" width="1" height="5"></rect>
                    <rect id="Rectangle" fill="#D7B463" transform="translate(2.500000, 5.500000) rotate(90.000000) translate(-2.500000, -5.500000) " x="2" y="3" width="1" height="5"></rect>
                    <rect id="Rectangle" fill="#D7B463" x="6" y="7" width="1" height="5"></rect>
                </g>
            </g>
            <g id="盾牌" transform="translate(286.518147, 217.275301)" fill-rule="nonzero">
                <rect id="Rectangle" fill="#000000" opacity="0" x="0" y="0" width="58" height="58"></rect>
                <path d="M27.0274296,55.6715442 C28.3063175,56.1094853 29.6993918,56.1094853 30.9782798,55.6715442 C39.7021224,52.6912696 42.8536676,50.2569996 42.8536676,50.2569996 C51.9200695,44.0973863 52,36.0096947 52,36.0096947 L52,10.4839844 C52,9.23272408 50.9780315,8.15777772 49.7219809,8.11227735 C43.287576,7.88477547 33.8043937,3.17548667 30.3331265,1.33272149 C29.4995656,0.889092836 28.5004344,0.889092836 27.6668735,1.33272149 C24.1956063,3.16979913 14.7181333,7.88477547 8.27801911,8.11227735 C7.02196847,8.15777772 6,9.23272408 6,10.4839844 L6,36.0096947 C6,36.0096947 6.0799305,44.0973863 15.1463324,50.2569996 C15.1520417,50.2569996 18.3035869,52.6912696 27.0274296,55.6715442 Z" id="Path" fill="#2196F3"></path>
                <path d="M27.3615819,50.7308327 C28.4180791,51.0897224 29.5706215,51.0897224 30.6271186,50.7308327 C37.8361582,48.2802891 40.440678,46.2727499 40.440678,46.2727499 C47.9322034,41.2034331 48,34.5415434 48,34.5415434 L48,13.8044487 C48,12.7726409 47.1525424,11.8922396 46.1186441,11.8529861 C40.8022599,11.6679336 32.9661017,7.78743886 30.1016949,6.273373 C29.4124294,5.90887567 28.5875706,5.90887567 27.8983051,6.273373 C25.0338983,7.78743886 17.1977401,11.6679336 11.8813559,11.8529861 C10.8474576,11.886632 10,12.7726409 10,13.8044487 L10,34.5415434 C10,34.5415434 10.0677966,41.2034331 17.559322,46.2727499 C17.5480226,46.2727499 20.1525424,48.2802891 27.3615819,50.7308327 L27.3615819,50.7308327 Z" id="Path" fill="#64B5F6"></path>
                <path d="M28.994352,6 C28.6159334,6 28.2375149,6.08971963 27.8929845,6.27476636 C25.0294293,7.78878505 17.1956005,11.6691589 11.8807967,11.8542056 C10.8472057,11.8878505 10,12.7738318 10,13.8056075 L10,34.5420561 C10,34.5420561 10.0677765,41.2037383 17.5570749,46.2728972 C17.5570749,46.2728972 20.1608205,48.2803738 27.367717,50.7308411 C27.8929845,50.9102804 28.4464923,51 29,51 L29,6 L28.994352,6 Z" id="Path" fill="#90CAF9"></path>
                <path d="M48.2030969,34.1184744 C48.2030969,34.1184744 48.1339575,40.8666486 40.4940583,46.0016229 C40.4940583,46.0016229 39.2207418,46.9786313 36,48.3987016 L38.7310047,52 C41.9114152,50.4436029 44.7346057,48.648634 46.8260713,46.3708412 C50.2657544,42.5536922 51.671588,39.1682445 52,36.0043278 L48.2030969,31 L48.2030969,34.1184744 Z" id="Path" fill="#1E88E5"></path>
                <path d="M48,34.0885726 L48,31.0494267 L39.5674792,20 L29,29.6378015 L29,38.7773824 L36.0374554,48 C39.1947087,46.610518 40.4429251,45.6638988 40.4429251,45.6638988 C47.9322235,40.665085 48,34.0885726 48,34.0885726 L48,34.0885726 Z" id="Path" fill="#42A5F5"></path>
                <polygon id="Path" fill="#64B5F6" points="27.6375385 32.1472618 20 28 29 40 29 30.8826507"></polygon>
                <path d="M27.5866423,34 C27.1600954,34 26.727936,33.8382953 26.4024134,33.514886 L20.4924933,27.6377576 C19.8358356,26.9853629 19.8358356,25.9314946 20.4924933,25.2846759 C21.1491511,24.6322812 22.209906,24.6322812 22.8609513,25.2846759 L27.5866423,29.9796873 L37.1390487,20.489296 C37.7957065,19.8369013 38.8564613,19.8369013 39.5075067,20.489296 C40.1641644,21.1416907 40.1641644,22.1955591 39.5075067,22.8423778 L28.7708713,33.50931 C28.4453487,33.8382953 28.0188017,34 27.5866423,34 Z" id="Path" fill="#FFFFFF"></path>
            </g>
            <g id="Group-12" transform="translate(149.518147, 131.275301)">
                <g id="Group-10" transform="translate(-0.000000, 0.000000)" fill="#F1F4FD">
                    <rect id="Rectangle" x="0" y="0" width="85" height="36" rx="4"></rect>
                </g>
                <g id="Group-11" transform="translate(42.000000, 20.000000) scale(1, -1) translate(-42.000000, -20.000000) translate(9.000000, 7.000000)" fill="#DEE2FF">
                    <rect id="Rectangle" x="54" y="0" width="3" height="22"></rect>
                    <rect id="Rectangle" x="45" y="0" width="3" height="15"></rect>
                    <rect id="Rectangle" x="36" y="0" width="3" height="20"></rect>
                    <rect id="Rectangle" x="27" y="0" width="3" height="13"></rect>
                    <rect id="Rectangle" x="0" y="0" width="3" height="13"></rect>
                    <rect id="Rectangle" x="18" y="0" width="3" height="16"></rect>
                    <rect id="Rectangle" x="9" y="0" width="3" height="26"></rect>
                    <rect id="Rectangle" x="63" y="0" width="3" height="13"></rect>
                </g>
            </g>
        </g>
    </g>
</svg>